<?xml version="1.0" standalone="no"?>
<!DOCTYPE svg PUBLIC "-//W3C//DTD SVG 20010904//EN"
 "http://www.w3.org/TR/2001/REC-SVG-20010904/DTD/svg10.dtd">
<svg version="1.0" xmlns="http://www.w3.org/2000/svg"
 width="1665.000000pt" height="1665.000000pt" viewBox="0 0 1665.000000 1665.000000"
 preserveAspectRatio="xMidYMid meet">
<metadata>
Created by potrace 1.11, written by Peter Selinger 2001-2013
</metadata>
<g transform="translate(0.000000,1665.000000) scale(0.100000,-0.100000)"
fill="#000000" stroke="none">
<path d="M7965 15794 c-755 -38 -1153 -83 -1710 -195 -771 -155 -1416 -401
-1804 -689 -155 -115 -328 -296 -406 -425 -95 -159 -104 -221 -114 -828 l-9
-498 -59 -72 c-183 -223 -292 -467 -314 -708 -16 -164 -24 -7503 -10 -8414 10
-626 10 -631 35 -720 188 -684 962 -1260 2182 -1624 533 -158 1106 -256 1944
-332 96 -8 259 -10 560 -6 657 10 1055 32 1355 73 1724 238 2967 841 3364
1632 56 112 109 273 121 369 18 143 30 2114 30 4933 0 2711 -9 3886 -30 4109
-21 220 -123 453 -296 674 l-53 68 -1 409 c-1 665 -19 793 -136 970 -57 87
-236 267 -363 364 -511 391 -1416 693 -2496 830 -207 26 -436 48 -705 66 -153
11 -949 21 -1085 14z m4328 -1965 c-10 -17 -24 -36 -32 -42 -8 -7 -2 7 14 31
32 49 45 57 18 11z m-43 -63 c0 -2 -8 -10 -17 -17 -16 -13 -17 -12 -4 4 13 16
21 21 21 13z m-30 -39 c0 -1 -30 -32 -67 -67 l-68 -65 65 68 c60 62 70 72 70
64z m154 -426 c-6 -38 -8 -40 -24 -26 -9 8 -23 15 -31 15 -8 0 2 14 21 29 19
16 36 28 38 27 1 -2 0 -22 -4 -45z m-8007 -5 c-1 -1 -12 -10 -24 -20 l-23 -19
0 43 0 43 25 -23 c14 -13 24 -24 22 -24z m7910 -148 c-57 -114 -240 -297 -418
-417 -451 -304 -1472 -600 -2329 -675 -720 -64 -1973 -66 -2435 -5 -958 126
-1872 407 -2340 720 -183 122 -295 245 -346 380 l-20 52 23 -16 c148 -106 425
-253 663 -352 526 -220 1313 -411 1975 -479 993 -103 2078 -81 2990 60 182 28
627 118 790 159 125 32 486 143 599 185 291 107 643 283 806 403 33 24 62 43
64 41 2 -2 -8 -27 -22 -56z m-132 -286 c-44 -43 -96 -88 -115 -101 -23 -15
-18 -9 15 20 28 24 77 69 110 101 33 32 62 58 65 58 3 -1 -31 -35 -75 -78z
m-7790 -338 c261 -226 598 -400 1094 -564 935 -310 1990 -438 3298 -402 494
14 794 40 1233 108 840 129 1645 385 2095 665 191 120 370 270 450 378 17 22
32 41 35 41 8 0 104 -165 134 -230 l26 -55 0 -914 0 -914 -55 -104 c-30 -57
-78 -140 -106 -184 l-51 -80 -27 18 c-430 283 -982 474 -1746 602 -473 80
-1083 135 -1930 176 -170 8 -346 17 -390 20 -94 6 -719 -10 -962 -25 -1457
-87 -2684 -370 -3325 -767 -50 -30 -93 -51 -98 -47 -5 5 -27 43 -49 84 l-41
75 0 1038 0 1037 36 73 c20 39 57 105 82 146 l46 74 75 -81 c42 -45 121 -120
176 -168z m4703 219 c-10 -2 -26 -2 -35 0 -10 3 -2 5 17 5 19 0 27 -2 18 -5z
m-245 -10 c-34 -2 -93 -2 -130 0 -37 2 -9 3 62 3 72 0 102 -1 68 -3z m-465
-10 c-86 -2 -230 -2 -320 0 -90 1 -19 3 157 3 176 0 249 -2 163 -3z m-851
-1909 c-3 -3 -12 -4 -19 -1 -8 3 -5 6 6 6 11 1 17 -2 13 -5z m1390 0 c-3 -3
-12 -4 -19 -1 -8 3 -5 6 6 6 11 1 17 -2 13 -5z m-1519 -11 c-10 -2 -26 -2 -35
0 -10 3 -2 5 17 5 19 0 27 -2 18 -5z m1700 0 c-10 -2 -28 -2 -40 0 -13 2 -5 4
17 4 22 1 32 -1 23 -4z m-1830 -10 c-10 -2 -26 -2 -35 0 -10 3 -2 5 17 5 19 0
27 -2 18 -5z m1985 0 c-13 -2 -33 -2 -45 0 -13 2 -3 4 22 4 25 0 35 -2 23 -4z
m-2095 -10 c-10 -2 -28 -2 -40 0 -13 2 -5 4 17 4 22 1 32 -1 23 -4z m2255 0
c-13 -2 -33 -2 -45 0 -13 2 -3 4 22 4 25 0 35 -2 23 -4z m-2370 -10 c-7 -2
-21 -2 -30 0 -10 3 -4 5 12 5 17 0 24 -2 18 -5z m2520 0 c-13 -2 -35 -2 -50 0
-16 2 -5 4 22 4 28 0 40 -2 28 -4z m-2615 -10 c-10 -2 -28 -2 -40 0 -13 2 -5
4 17 4 22 1 32 -1 23 -4z m2740 0 c-10 -2 -28 -2 -40 0 -13 2 -5 4 17 4 22 1
32 -1 23 -4z m-2845 -10 c-7 -2 -19 -2 -25 0 -7 3 -2 5 12 5 14 0 19 -2 13 -5z
m2955 0 c-10 -2 -26 -2 -35 0 -10 3 -2 5 17 5 19 0 27 -2 18 -5z m-3035 -10
c-7 -2 -21 -2 -30 0 -10 3 -4 5 12 5 17 0 24 -2 18 -5z m3145 0 c-10 -2 -26
-2 -35 0 -10 3 -2 5 17 5 19 0 27 -2 18 -5z m-3235 -10 c-7 -2 -19 -2 -25 0
-7 3 -2 5 12 5 14 0 19 -2 13 -5z m3340 0 c-7 -2 -21 -2 -30 0 -10 3 -4 5 12
5 17 0 24 -2 18 -5z m-3416 -9 c-3 -3 -12 -4 -19 -1 -8 3 -5 6 6 6 11 1 17 -2
13 -5z m3510 0 c-3 -3 -12 -4 -19 -1 -8 3 -5 6 6 6 11 1 17 -2 13 -5z m-3590
-10 c-3 -3 -12 -4 -19 -1 -8 3 -5 6 6 6 11 1 17 -2 13 -5z m-640 -100 c-3 -3
-12 -4 -19 -1 -8 3 -5 6 6 6 11 1 17 -2 13 -5z m-90 -20 c-3 -3 -12 -4 -19 -1
-8 3 -5 6 6 6 11 1 17 -2 13 -5z m5210 0 c-3 -3 -12 -4 -19 -1 -8 3 -5 6 6 6
11 1 17 -2 13 -5z m-5260 -10 c-3 -3 -12 -4 -19 -1 -8 3 -5 6 6 6 11 1 17 -2
13 -5z m5310 0 c-3 -3 -12 -4 -19 -1 -8 3 -5 6 6 6 11 1 17 -2 13 -5z m90 -20
c-3 -3 -12 -4 -19 -1 -8 3 -5 6 6 6 11 1 17 -2 13 -5z m-6587 -349 c-14 -8
-29 -14 -35 -14 -5 0 1 6 15 14 14 8 30 14 35 14 6 0 -1 -6 -15 -14z m8127
-1150 c-5 -484 -3 -735 3 -735 7 0 10 -424 10 -1230 l0 -1230 -32 -58 c-98
-176 -243 -367 -393 -517 -597 -598 -1533 -925 -3030 -1060 -748 -67 -1038
-77 -1475 -50 -792 50 -1438 167 -2065 377 -508 169 -881 351 -1190 580 -152
113 -355 318 -433 437 l-62 95 0 1328 c0 879 3 1328 10 1328 7 0 10 227 10
660 0 547 2 660 13 660 8 0 65 -39 128 -87 556 -422 1213 -704 2092 -899 1205
-267 2458 -282 3852 -48 798 135 1323 303 1770 568 225 134 393 265 660 514
60 56 116 102 124 102 12 0 13 -101 8 -735z m-37 -4309 c-6 -193 -15 -399 -18
-458 l-7 -106 -140 84 c-160 97 -333 186 -452 235 -46 18 -83 36 -83 39 0 4
39 33 88 65 169 113 287 209 512 417 58 54 107 93 109 87 2 -6 -2 -170 -9
-363z m-8455 137 c151 -112 270 -192 408 -273 l109 -63 -154 -62 c-84 -34
-230 -98 -324 -143 -95 -45 -174 -82 -178 -82 -3 0 -6 165 -6 366 0 292 3 364
13 357 6 -6 66 -50 132 -100z m7735 -423 c8 -5 11 -10 5 -10 -5 0 -17 5 -25
10 -8 5 -10 10 -5 10 6 0 17 -5 25 -10z m-6391 -259 c627 -211 1421 -355 2215
-401 228 -13 791 -13 1022 0 351 20 758 65 1273 141 379 56 838 161 1135 259
82 28 156 50 166 50 27 0 243 -73 400 -135 359 -142 615 -299 802 -492 90 -93
96 -112 75 -236 -89 -513 -977 -1071 -2192 -1376 -426 -106 -793 -157 -1355
-186 -642 -33 -1062 -34 -1515 -5 -1194 77 -2306 425 -2985 934 -195 146 -338
304 -416 457 -82 165 -126 378 -91 445 22 42 116 127 205 185 93 61 300 166
420 213 198 78 593 203 646 205 10 1 98 -26 195 -58z m7212 -618 c13 -16 12
-17 -3 -4 -17 13 -22 21 -14 21 2 0 10 -8 17 -17z m-8764 -80 c-3 -10 -5 -4
-5 12 0 17 2 24 5 18 2 -7 2 -21 0 -30z m8728 -119 c-3 -29 -13 -60 -21 -70
-13 -16 -15 -16 -11 -2 3 9 11 54 19 100 13 89 25 66 13 -28z m-8722 -74 c3
-11 1 -18 -4 -14 -5 3 -9 12 -9 20 0 20 7 17 13 -6z m7930 -798 c-27 -20 -131
-79 -121 -67 9 9 131 84 138 84 3 0 -5 -7 -17 -17z m-133 -77 c0 -5 -68 -41
-105 -55 -48 -18 -24 0 38 29 73 35 67 32 67 26z m110 0 c0 -2 -10 -9 -22 -15
-22 -11 -22 -10 -4 4 21 17 26 19 26 11z m-340 -115 c-41 -21 -79 -39 -85 -39
-5 0 24 18 65 39 41 21 80 39 85 39 6 0 -24 -18 -65 -39z m-4407 -537 c-7 -2
-19 -2 -25 0 -7 3 -2 5 12 5 14 0 19 -2 13 -5z m85 -10 c-10 -2 -26 -2 -35 0
-10 3 -2 5 17 5 19 0 27 -2 18 -5z m90 -10 c-10 -2 -26 -2 -35 0 -10 3 -2 5
17 5 19 0 27 -2 18 -5z m105 -10 c-7 -2 -19 -2 -25 0 -7 3 -2 5 12 5 14 0 19
-2 13 -5z m1770 0 c-7 -2 -21 -2 -30 0 -10 3 -4 5 12 5 17 0 24 -2 18 -5z
m-180 -10 c-13 -2 -35 -2 -50 0 -16 2 -5 4 22 4 28 0 40 -2 28 -4z m390 -30
c-7 -2 -19 -2 -25 0 -7 3 -2 5 12 5 14 0 19 -2 13 -5z m-1986 -9 c-3 -3 -12
-4 -19 -1 -8 3 -5 6 6 6 11 1 17 -2 13 -5z m1828 -10 c-63 -9 -245 -15 -495
-18 l-395 -4 340 9 c187 5 387 13 445 17 165 14 222 12 105 -4z m-1727 -1
c-10 -2 -26 -2 -35 0 -10 3 -2 5 17 5 19 0 27 -2 18 -5z m169 -10 c-20 -2 -52
-2 -70 0 -17 2 0 4 38 4 39 0 53 -2 32 -4z m486 -10 c-67 -2 -179 -2 -250 0
-70 1 -15 3 122 3 138 0 195 -2 128 -3z"/>
<path d="M7355 8079 c-398 -29 -564 -99 -685 -288 -19 -29 -101 -180 -181
-335 l-146 -281 46 -6 c25 -3 47 -6 47 -5 1 1 27 44 59 96 137 227 263 341
450 407 79 28 82 28 327 28 135 0 249 -3 253 -7 4 -3 -5 -75 -19 -160 -14 -84
-35 -220 -46 -303 -130 -957 -228 -1278 -612 -2010 -37 -71 -42 -89 -46 -162
-4 -75 -2 -88 23 -139 97 -198 396 -166 500 54 143 300 273 933 349 1702 38
373 76 865 76 966 l0 54 495 0 495 0 0 -38 c0 -21 -7 -139 -15 -263 -8 -123
-19 -298 -25 -389 -28 -447 -52 -813 -70 -1090 -11 -168 -20 -353 -20 -411 0
-429 211 -708 536 -709 282 0 588 214 778 545 50 88 121 259 131 318 l7 37
-44 0 -45 0 -53 -92 c-120 -213 -273 -382 -398 -441 -87 -42 -191 -45 -263 -9
-143 70 -254 276 -293 544 -22 143 -20 256 9 643 13 182 41 555 60 830 20 275
38 506 40 513 3 9 52 12 198 12 107 0 329 3 495 7 l302 6 0 194 0 193 -1302
-1 c-717 -1 -1352 -5 -1413 -10z"/>
</g>
</svg>
